PathFileType	4	(X/Y/Z)	D:\TRACE\v60_Jaco2_6-2-23\BothDRS_Motion3_9-platform.trc
DataRate	CameraRate	NumFrames	NumMarkers	Units	OrigDataRate	OrigDataStartFrame	OrigNumFrames
100.00	100.00	      48	5	mm	100.00	2626	      7000
Frame#	Time	Left_Front			Right_Front			Left_Aft			Right_Aft			Post			
		X1	Y1	Z1	X2	Y2	Z2	X3	Y3	Z3	X4	Y4	Z4	X5	Y5	Z5	

2626	26.250	-779.93268	83.46210	-628.94568	790.84021	81.23261	-606.15149	-710.40686	-40.54988	500.72491	703.78003	-52.68396	603.15479	13.75744	1408.37366	-795.30768	
2627	26.260	-779.99884	83.19031	-629.22467	790.77734	80.85529	-606.31396	-710.37073	-40.46286	500.67007	703.69623	-52.53582	603.12817	13.67327	1407.90393	-795.94092	
2628	26.270	-779.98859	82.87327	-629.42645	790.69196	80.51121	-606.45172	-709.87793	-40.21713	500.64355	703.56909	-52.41221	603.06659	13.45714	1407.42542	-796.36932	
2629	26.280	-780.16467	82.77361	-629.17053	790.68872	80.30198	-606.50696	-710.19971	-39.95006	500.56909	703.57037	-52.21741	603.06372	13.53558	1406.92212	-797.02191	
2630	26.290	-779.88147	82.54087	-629.52582	790.73712	80.08511	-606.59271	-710.26324	-39.64882	500.46948	703.64832	-52.17607	602.96741	13.76075	1406.67041	-797.94086	
2631	26.300	-779.92236	82.42188	-629.59900	790.80554	79.83951	-606.73462	-710.24408	-39.40900	500.40738	703.51471	-51.82423	602.73444	13.78716	1406.57605	-798.56964	
2632	26.310	-779.82715	82.10041	-629.67578	790.78693	79.51953	-606.90839	-709.95984	-39.30241	500.51340	703.40875	-51.21943	602.76306	13.42542	1406.38696	-799.36987	
2633	26.320	-780.10510	81.75526	-630.12201	790.73486	79.15635	-607.02856	-710.56641	-38.80267	500.28998	703.46844	-51.08028	602.73163	13.54828	1405.76233	-800.21295	
2634	26.330	-780.17010	81.08473	-629.97351	790.57941	78.77971	-607.15631	-710.66406	-38.64473	500.27084	703.39368	-50.85567	602.70209	13.47927	1405.33630	-800.75604	
2635	26.340	-780.21466	80.78027	-630.12885	790.43420	78.52482	-607.24359	-710.82086	-38.46886	500.21039	703.26184	-50.62596	602.70819	13.17803	1405.00500	-801.63306	
2636	26.350	-780.26355	80.70414	-630.15869	790.37201	78.34819	-607.31378	-711.01849	-38.10068	500.08267	703.09631	-50.31468	602.64252	13.39459	1404.58838	-802.52747	
2637	26.360	-780.38434	80.62467	-630.19293	790.23724	78.09723	-607.43384	-711.13080	-37.83400	499.97235	702.96027	-50.05339	602.62323	13.29619	1404.37952	-803.28052	
2638	26.370	-780.47437	80.34004	-630.29852	790.06219	77.75639	-607.56860	-711.22662	-37.74168	499.91962	703.00769	-49.70029	602.56439	13.09652	1404.08069	-803.92548	
2639	26.380	-780.44604	79.95505	-630.30713	789.99170	77.66590	-607.58148	-711.33838	-37.64480	499.89218	702.88751	-49.48464	602.50928	13.00843	1403.80383	-804.51019	
2640	26.390	-780.53461	79.25369	-630.18359	789.94373	77.53487	-607.59668	-711.44788	-37.52076	499.78238	702.94580	-49.28790	602.53290	12.96709	1403.32446	-805.06769	
2641	26.400	-780.78455	78.92446	-630.32568	789.88763	77.26043	-607.61444	-711.58972	-37.29900	499.74091	702.88739	-49.17756	602.50348	12.64766	1403.02954	-805.57788	
2642	26.410	-781.21600	78.78479	-630.11493	789.69696	76.91500	-607.71161	-711.67841	-37.07694	499.69904	702.76324	-48.93504	602.43665	12.48244	1402.80298	-805.94910	
2643	26.420	-781.04431	78.58784	-630.53082	789.46381	76.77474	-607.88367	-711.87183	-36.90944	499.67029	702.40308	-48.67197	602.41486	12.31794	1402.43445	-806.29785	
2644	26.430	-781.14020	78.43920	-630.59662	789.09418	76.43826	-607.91754	-712.16174	-36.72028	499.67661	702.12109	-48.34237	602.31421	12.26213	1402.07800	-806.58124	
2645	26.440	-781.39655	78.26874	-630.75562	788.93774	76.06456	-608.12079	-712.38513	-36.56670	499.65460	701.95874	-48.28337	602.26019	12.15815	1401.62659	-807.46667	
2646	26.450	-781.63959	78.04603	-630.90015	788.71448	75.89738	-608.19556	-712.54077	-36.29431	499.57816	701.74890	-48.15864	602.21973	12.10759	1401.46460	-808.00714	
2647	26.460	-781.83691	77.83290	-631.20740	788.57611	75.69709	-608.27191	-712.46222	-36.16457	499.61600	701.55817	-47.92085	602.17505	11.80265	1401.24475	-808.85260	
2648	26.470	-782.14148	77.58526	-631.30109	788.34924	75.52651	-608.27197	-712.59271	-35.90300	499.60233	701.39496	-47.79069	602.18768	11.55637	1401.00098	-809.47876	
2649	26.480	-782.50818	77.21861	-631.58038	788.19299	75.28242	-608.27875	-712.85406	-36.00264	499.52039	701.09314	-47.59486	602.26025	11.35842	1400.75903	-810.20197	
2650	26.490	-782.66321	77.08514	-631.69360	788.00177	75.10717	-608.32733	-713.13049	-35.90779	499.52271	700.82678	-47.46780	602.25482	11.23964	1400.49829	-810.69128	
2651	26.500	-782.74310	77.05070	-631.69836	787.75989	75.19611	-608.33356	-713.46106	-35.68859	499.46811	700.57916	-47.44598	602.15363	11.01447	1400.37744	-811.20068	
2652	26.510	-782.91364	77.25494	-631.42542	787.63794	75.01076	-608.44336	-713.79968	-35.54385	499.38718	700.39563	-47.44076	602.09692	10.75975	1400.47229	-811.59485	
2653	26.520	-783.10803	77.07272	-631.51813	787.40552	74.94410	-608.55933	-714.12561	-35.36399	499.32849	700.27209	-47.42645	602.01776	10.28815	1400.41565	-811.77838	
2654	26.530	-783.29144	76.90906	-631.56824	787.17413	74.80634	-608.54010	-714.39392	-35.30679	499.36362	700.09827	-47.33150	601.97693	9.92844	1400.16589	-811.82898	
2655	26.540	-783.61469	76.69350	-631.62274	786.85962	74.75347	-608.57593	-714.57697	-35.40550	499.53293	699.66016	-47.12524	602.00281	9.77021	1399.82813	-811.78967	
2656	26.550	-784.03778	76.54275	-631.66742	786.58221	74.62849	-608.64862	-714.89905	-35.33375	499.46292	699.38562	-46.92728	601.99432	9.57739	1399.67700	-811.71454	
2657	26.560	-784.42621	76.53259	-631.69360	786.19885	74.35226	-608.76245	-715.15118	-35.22345	499.45874	699.06097	-46.86665	601.93176	9.30050	1399.40466	-811.63196	
2658	26.570	-784.56458	76.27930	-631.49524	785.91479	74.24310	-608.83081	-715.34418	-35.12614	499.50394	698.69873	-46.70880	601.89502	8.84538	1399.10754	-811.70764	
2659	26.580	-784.85120	76.19486	-631.58881	785.65271	74.13004	-608.83618	-715.59821	-34.92596	499.49142	698.36444	-46.68419	601.85242	8.58549	1398.82288	-811.86053	
2660	26.590	-785.21454	76.12526	-631.60443	785.32507	74.02837	-608.83655	-715.93896	-34.83014	499.46490	698.01349	-46.63733	601.80408	8.39266	1398.67334	-812.23364	
2661	26.600	-785.53137	76.05976	-631.72455	784.94263	73.81316	-608.90308	-716.24872	-34.74339	499.43158	698.02081	-46.56093	601.82495	8.24086	1398.64197	-812.71826	
2662	26.610	-785.91016	75.92781	-631.83295	784.66620	73.70397	-608.95166	-716.50482	-34.69821	499.35358	697.64972	-46.49351	601.84369	7.99994	1398.53113	-813.39941	
2663	26.620	-786.11816	75.64798	-631.96362	784.47125	73.68086	-609.01508	-716.80359	-34.63871	499.28546	697.30627	-46.35960	601.80402	7.86710	1398.48303	-814.11249	
2664	26.630	-786.38123	75.52752	-631.99304	784.19598	73.63629	-609.08698	-717.23145	-34.54316	499.28668	696.86395	-46.24295	601.76190	7.51987	1398.49890	-814.47736	
2665	26.640	-786.47607	75.19299	-631.41626	783.83386	73.60499	-609.15204	-717.58142	-34.52082	499.27780	696.55023	-46.10151	601.77002	6.98468	1398.47595	-814.88525	
2666	26.650	-786.89685	75.45930	-631.61157	783.46558	73.48954	-609.15710	-717.89471	-34.57193	499.22665	696.25580	-45.96496	601.78027	6.55530	1398.43542	-815.13556	
2667	26.660	-787.10681	75.43214	-631.63855	783.22595	73.40833	-609.15552	-718.17224	-34.69525	499.30026	696.06091	-45.91993	601.75989	6.33689	1398.32947	-815.24597	
2668	26.670	-787.50201	75.47679	-631.64935	782.92114	73.37878	-609.14252	-718.38684	-34.74766	499.25916	695.81201	-45.92044	601.71252	5.99006	1398.27429	-815.22589	
2669	26.680	-788.07025	75.29665	-631.63348	782.55072	73.39465	-609.10303	-718.66217	-34.74985	499.22495	695.90979	-45.91752	601.68439	5.55387	1398.19348	-815.13751	
2670	26.690	-788.35876	75.23029	-631.64954	782.19049	73.37230	-609.07037	-719.00269	-34.67331	499.15848	695.17413	-45.86148	601.65729	5.20852	1398.16785	-814.93787	
2671	26.700	-788.75421	75.10689	-631.78021	781.74463	73.29575	-609.10138	-719.49042	-34.54047	499.17841	694.80096	-45.79869	601.63824	4.84558	1398.16589	-814.66364	
2672	26.710	-789.21777	75.09070	-632.00354	781.34863	73.18393	-609.22656	-719.87311	-34.41588	499.17230	694.21417	-45.83414	601.60175	4.55055	1398.04150	-814.59167	
2673	26.720	-789.54565	75.16415	-632.13843	781.08319	73.10133	-609.22784	-720.02106	-34.23704	499.15903	693.79272	-45.72628	601.55939	4.22529	1397.83447	-814.54230	
